<mxfile host="app.diagrams.net" modified="2023-10-07T22:39:02.176Z" agent="Mozilla/5.0 (Macintosh; Intel Mac OS X 10_15_7) AppleWebKit/537.36 (KHTML, like Gecko) Chrome/117.0.0.0 Safari/537.36" etag="bV677i2LTHsfnApdJnhC" version="22.0.4" type="device">
  <diagram name="Page-1" id="vbz4YUwgj5Ns7xUqPFp4">
    <mxGraphModel dx="719" dy="422" grid="1" gridSize="10" guides="1" tooltips="1" connect="1" arrows="1" fold="1" page="1" pageScale="1" pageWidth="850" pageHeight="1100" math="0" shadow="0">
      <root>
        <mxCell id="0" />
        <mxCell id="1" parent="0" />
        <mxCell id="YF4UaICxPm4XRYPDHTDl-48" value="" style="shape=image;verticalLabelPosition=bottom;labelBackgroundColor=default;verticalAlign=top;aspect=fixed;imageAspect=0;image=data:image/jpeg,/9j/4AAQSkZJRgABAQEBLAEsAAD/4QBWRXhpZgAATU0AKgAAAAgABAEaAAUAAAABAAAAPgEbAAUAAAABAAAARgEoAAMAAAABAAIAAAITAAMAAAABAAEAAAAAAAAAAAEsAAAAAQAAASwAAAAB/+0ALFBob3Rvc2hvcCAzLjAAOEJJTQQEAAAAAAAPHAFaAAMbJUccAQAAAgAEAP/hDIFodHRwOi8vbnMuYWRvYmUuY29tL3hhcC8xLjAvADw/eHBhY2tldCBiZWdpbj0n77u/JyBpZD0nVzVNME1wQ2VoaUh6cmVTek5UY3prYzlkJz8+Cjx4OnhtcG1ldGEgeG1sbnM6eD0nYWRvYmU6bnM6bWV0YS8nIHg6eG1wdGs9J0ltYWdlOjpFeGlmVG9vbCAxMC4xMCc+CjxyZGY6UkRGIHhtbG5zOnJkZj0naHR0cDovL3d3dy53My5vcmcvMTk5OS8wMi8yMi1yZGYtc3ludGF4LW5zIyc+CgogPHJkZjpEZXNjcmlwdGlvbiByZGY6YWJvdXQ9JycKICB4bWxuczp0aWZmPSdodHRwOi8vbnMuYWRvYmUuY29tL3RpZmYvMS4wLyc+CiAgPHRpZmY6UmVzb2x1dGlvblVuaXQ+MjwvdGlmZjpSZXNvbHV0aW9uVW5pdD4KICA8dGlmZjpYUmVzb2x1dGlvbj4zMDAvMTwvdGlmZjpYUmVzb2x1dGlvbj4KICA8dGlmZjpZUmVzb2x1dGlvbj4zMDAvMTwvdGlmZjpZUmVzb2x1dGlvbj4KIDwvcmRmOkRlc2NyaXB0aW9uPgoKIDxyZGY6RGVzY3JpcHRpb24gcmRmOmFib3V0PScnCiAgeG1sbnM6eG1wTU09J2h0dHA6Ly9ucy5hZG9iZS5jb20veGFwLzEuMC9tbS8nPgogIDx4bXBNTTpEb2N1bWVudElEPmFkb2JlOmRvY2lkOnN0b2NrOjNmMzE5MDM1LTM1NjItNDhmZC05ZjFlLTFhZmViMTU3ZmVjZjwveG1wTU06RG9jdW1lbnRJRD4KICA8eG1wTU06SW5zdGFuY2VJRD54bXAuaWlkOjZiYWMxMWU4LWE4OGQtNGNkOC04ZmU5LTI5MDczNzk2NDIyYzwveG1wTU06SW5zdGFuY2VJRD4KIDwvcmRmOkRlc2NyaXB0aW9uPgo8L3JkZjpSREY+CjwveDp4bXBtZXRhPgogICAgICAgICAgICAgICAgICAgICAgICAgICAgICAgICAgICAgICAgICAgICAgICAgICAgICAgICAgICAgICAgICAgICAgICAgICAgICAgICAgICAgICAgICAgICAgICAgICAgCiAgICAgICAgICAgICAgICAgICAgICAgICAgICAgICAgICAgICAgICAgICAgICAgICAgICAgICAgICAgICAgICAgICAgICAgICAgICAgICAgICAgICAgICAgICAgICAgICAgICAKICAgICAgICAgICAgICAgICAgICAgICAgICAgICAgICAgICAgICAgICAgICAgICAgICAgICAgICAgICAgICAgICAgICAgICAgICAgICAgICAgICAgICAgICAgICAgICAgICAgIAogICAgICAgICAgICAgICAgICAgICAgICAgICAgICAgICAgICAgICAgICAgICAgICAgICAgICAgICAgICAgICAgICAgICAgICAgICAgICAgICAgICAgICAgICAgICAgICAgICAgCiAgICAgICAgICAgICAgICAgICAgICAgICAgICAgICAgICAgICAgICAgICAgICAgICAgICAgICAgICAgICAgICAgICAgICAgICAgICAgICAgICAgICAgICAgICAgICAgICAgICAKICAgICAgICAgICAgICAgICAgICAgICAgICAgICAgICAgICAgICAgICAgICAgICAgICAgICAgICAgICAgICAgICAgICAgICAgICAgICAgICAgICAgICAgICAgICAgICAgICAgIAogICAgICAgICAgICAgICAgICAgICAgICAgICAgICAgICAgICAgICAgICAgICAgICAgICAgICAgICAgICAgICAgICAgICAgICAgICAgICAgICAgICAgICAgICAgICAgICAgICAgCiAgICAgICAgICAgICAgICAgICAgICAgICAgICAgICAgICAgICAgICAgICAgICAgICAgICAgICAgICAgICAgICAgICAgICAgICAgICAgICAgICAgICAgICAgICAgICAgICAgICAKICAgICAgICAgICAgICAgICAgICAgICAgICAgICAgICAgICAgICAgICAgICAgICAgICAgICAgICAgICAgICAgICAgICAgICAgICAgICAgICAgICAgICAgICAgICAgICAgICAgIAogICAgICAgICAgICAgICAgICAgICAgICAgICAgICAgICAgICAgICAgICAgICAgICAgICAgICAgICAgICAgICAgICAgICAgICAgICAgICAgICAgICAgICAgICAgICAgICAgICAgCiAgICAgICAgICAgICAgICAgICAgICAgICAgICAgICAgICAgICAgICAgICAgICAgICAgICAgICAgICAgICAgICAgICAgICAgICAgICAgICAgICAgICAgICAgICAgICAgICAgICAKICAgICAgICAgICAgICAgICAgICAgICAgICAgICAgICAgICAgICAgICAgICAgICAgICAgICAgICAgICAgICAgICAgICAgICAgICAgICAgICAgICAgICAgICAgICAgICAgICAgIAogICAgICAgICAgICAgICAgICAgICAgICAgICAgICAgICAgICAgICAgICAgICAgICAgICAgICAgICAgICAgICAgICAgICAgICAgICAgICAgICAgICAgICAgICAgICAgICAgICAgCiAgICAgICAgICAgICAgICAgICAgICAgICAgICAgICAgICAgICAgICAgICAgICAgICAgICAgICAgICAgICAgICAgICAgICAgICAgICAgICAgICAgICAgICAgICAgICAgICAgICAKICAgICAgICAgICAgICAgICAgICAgICAgICAgICAgICAgICAgICAgICAgICAgICAgICAgICAgICAgICAgICAgICAgICAgICAgICAgICAgICAgICAgICAgICAgICAgICAgICAgIAogICAgICAgICAgICAgICAgICAgICAgICAgICAgICAgICAgICAgICAgICAgICAgICAgICAgICAgICAgICAgICAgICAgICAgICAgICAgICAgICAgICAgICAgICAgICAgICAgICAgCiAgICAgICAgICAgICAgICAgICAgICAgICAgICAgICAgICAgICAgICAgICAgICAgICAgICAgICAgICAgICAgICAgICAgICAgICAgICAgICAgICAgICAgICAgICAgICAgICAgICAKICAgICAgICAgICAgICAgICAgICAgICAgICAgICAgICAgICAgICAgICAgICAgICAgICAgICAgICAgICAgICAgICAgICAgICAgICAgICAgICAgICAgICAgICAgICAgICAgICAgIAogICAgICAgICAgICAgICAgICAgICAgICAgICAgICAgICAgICAgICAgICAgICAgICAgICAgICAgICAgICAgICAgICAgICAgICAgICAgICAgICAgICAgICAgICAgICAgICAgICAgCiAgICAgICAgICAgICAgICAgICAgICAgICAgICAgICAgICAgICAgICAgICAgICAgICAgICAgICAgICAgICAgICAgICAgICAgICAgICAgICAgICAgICAgICAgICAgICAgICAgICAKICAgICAgICAgICAgICAgICAgICAgICAgICAgICAgICAgICAgICAgICAgICAgICAgICAgICAgICAgICAgICAgICAgICAgICAgICAgICAgICAgICAgICAgICAgICAgICAgICAgIAogICAgICAgICAgICAgICAgICAgICAgICAgICAgICAgICAgICAgICAgICAgICAgICAgICAgICAgICAgICAgICAgICAgICAgICAgICAgICAgICAgICAgICAgICAgICAgICAgICAgCiAgICAgICAgICAgICAgICAgICAgICAgICAgICAgICAgICAgICAgICAgICAgICAgICAgICAgICAgICAgICAgICAgICAgICAgICAgICAgICAgICAgICAgICAgICAgICAgICAgICAKICAgICAgICAgICAgICAgICAgICAgICAgICAgICAgICAgICAgICAgICAgICAgICAgICAgICAgICAgICAgICAgICAgICAgICAgICAgICAgICAgICAgICAgICAgICAgICAgICAgIAo8P3hwYWNrZXQgZW5kPSd3Jz8+/9sAQwADAgIDAgIDAwMDBAMDBAUIBQUEBAUKBwcGCAwKDAwLCgsLDQ4SEA0OEQ4LCxAWEBETFBUVFQwPFxgWFBgSFBUU/8AACwgA8ADwAQERAP/EABwAAQACAgMBAAAAAAAAAAAAAAAICQEHBAUGCv/EAD8QAAEDAwIEAwMKBAQHAAAAAAABAgMEBQYHEQgJEiETQVExYXEUFSIyQlJygZGhM2JzkhYXk6IjJUNjgqOz/9oACAEBAAA/ALUwAAAAAAAAAAAAAAAAAAAAAAAAAAAAAAAAAAAAAAAAAAAAAAAAAAAAAAAAAAAAAAAAAAAAAAAAAAAAAAAAAAAAAAAAAAAAAAAAAAAAAAAAAAAAAAAAAAAAAAAAAAAAAAAAAAAAAAAAAAAAAAAAAAAAAAAAAAAAAAAAAAAAAAAAAADG+w3T1MgAAAAAAAAAHWX7J7Pi1PDPebrRWmCaVIY5a6pZA18i+xiK9URXL5Inc7JF3MmFXY1rq7xJ6ZaEUqy51mlqsEvT1so5pvEqpE9WQMR0jk96N2IYal86nT2xSTQYVhl7yqRu6NqbhKy3U7l8lTtJIqfFrVI6ZdzntYLu9zbFjWK4/Tr9Vz6earlT/wAnSI1f7TWV35pvEldFXws6p7cxfY2ks9E3b83ROX9zpo+ZXxKxyI9NUKpfc63UKp+ngnp7JzYeIy1OZ8pye2XhrfsVtlptl+KxtYv7m2cP52OoluWNuT4Fjd6Y36y26aehe7+5ZW/sSF0/5z+k+QPZDlON5Ficztt5Y2R19Oz4uYrX/wDrJVaXcWuj+szoo8R1Csl0q5NuigfUfJ6td/8AsS9L/wBGm290UyAY37mQAAAADCrsm5RhzZNbajUvifrMZp6hz7JhsDbZFEi7sWqciSVD9vvdTmxr/SLQuXhU5JW8HGmtTlNbNX3KWhkdFLUKrpPkvjSJTIqr7dokZsvpsbH1v4hsB4d8Xdfc6yGms9O5F+T02/XU1bk+xDEn0nr7PYmyb7qqJ3KlOJrm1aiaqT1dn04ZJp7jLlViVUTkddahvq6VO0O/b6Mf0k++prjRTl4668SdUl+qbZLj9qrXeNJf8slfE6o37q9rFRZpd07o7p6V+8Tn0t5L2muPRQz5xlF6y6sREV8FF02+lVfNNk65F+PWnwJK4hwF8P8AhLI22/SrHp1ZttJdIFr37+u86vNmW7RvArO1G0GE45QsT2NprRTxon6MOVU6X4dWs6KjFbJOxfsy22Byfuw8ZkfCVotljFS56VYhUOXssjbNBFJ/exrV/c0xm3Kj4eMuSR1JjVwxed6d5bLdJW7L7mSrIxP7SNGpPJGkaySbAdSGvd36KLJKLp+G88O//wAyH+rPL3150cbNU3LBqy8W2Hv85Y8qXCJET7SpH/xGJ73MacHR/jn1w0EnjpbJmlfU26nd0ust93raVET7CMk3dGn4HNUsF0E5zOH5Q+ntuqePzYfWu2a68Wrqq6FV83Pj/ixp8PE+JYDg+oGNalY/T3zFb7b8htE/8Ost1Q2aNV9FVq9nJ5tXZU80PQFN/Mc4ldTNJeOKKqxzKLhbabHaGhkoKGOdyUr2vjSSVJIkXpkR7lc13Ui7oiJ5Jtbxh2RRZfiVlvsDemG50UFaxN99myRten7OO4AAAABwb5eKbHrLX3StkSGjooJKmeRfsxsarnL+iKfNJIl34g9dH+Gj5L3meQL0oqK5fGq6jt+iyfohapxY8xrGeFnHaTSjSKOkv+T2Wjitb65+0lDaWxMSNrNk/jTIjU3ai9LV+sqqisIA6U6Da3cwDUesvT6msvLnSoy5ZXfZHJSUqe3w0dtsqoi9oYk7bp2anctm4X+XHpZw4RUlzkoG5lmUaI519vELXJC/1p4O7Yfcv0n/AM/kSsREQyAAAYVEU1FrNwl6Ta+wy/40wq23KuemyXSGP5PWt9Np4+l67eiqqe4r1175Ltzt6VNy0jylt1iTdzbFkStin/DHUtRGOX0R7We9xCekrtbeCjUPdn+INOciav0o5GqyGrai+bV3iqI9/wATSxbhf5w+P5StJYdY7ezGLm7aNuRW5jn0Eq+zeaLu+Ff5m9Te6qvQhG7m+stN24g8Uymx3Oju1qv2LU80VXQzsmjl6J52dbXNVUVFb07KnovoWjcDWZtz3hH0rujZElcyxwUMjkX/AKlPvTv3/OJTeoAAAAI28xTUb/LXg91ErI5VirLlRJZqdGrsrnVT0idt8I3SL+R8+dsu1bZLjBX26rnoK2B3XDU00ro5I19WuaqKi+9DtsEuWPWrLKCtyu0VeQWKB6yVFsoq1KOSq2RVbH43Q9WNV23UqNV22+2y7KkxKnmz6kY/j9DjmneH4fp7jlBF4NHR0VE+odC1PLd70Yq+ar0bqqqq7qpJHgY4i+LfXnVSy1eRUbKjTNqufc7jX2SKhgdGrHdPgSta10knV07IzqT72yFmSezv7TIAAAAPD6p4zp/nWN1Fiz+jsd0s0qbvpbysXQ1dvrN61RWOTyc1UVPJSqbin5demlB8svujmrGJwdCq9+K37I6Vqt/lp6l0n5I2X/U8iu6sglpKmSnmVPEhc6NUa9HIioq77Kiqipvv3TsXF8l3VdmQaM5VgVRKi1mO3NK2nYq9/k1S3fZE9EljkVf6iFi4AAAAK3edpk1XRaRae2GJXJR3G9TVcyp7FdBBsxF/13L+RT9S0s1dUxU9PE+eeV6RxxRtVznuVdkaiJ3VVXsiIT+4Y+UTnGpsFJfdTKyTALDKiPZbWxpJdZ2r6sX6MG6ff6nJ5sQss0a4G9FdDIYH47g9vqLnEif83vDErqxXfeSSRFRi/wBNGp7jfCNRu2ybbGQAAAAdPmFnrMhxO9Wu33Oay19dRT01PcqdN5KSR8bmtlan3mKqOT3oUx5bygNfm3GqqmXXGMkkke5y1HzrK2WVVX6zvFiTuvtXuvt9p5F/Kc4jGq7bGLU7b2bXql7/AO48TmnLq4iMFglqK7TO5V1PGnUr7PLDXrt+CF7nf7TYXKxyK/6c8almx6WirKRb1SVlruVFNE5kkTWwuna57FRFb0vhb3VO26+peqhkAAAA1NxJcM2G8U2BMxXMoqpkEFQlXSV1vkSOppZkarepjnNcmytcqK1yKiovqiKngeGnl86T8MVwW8WSgqsgyXdfDvd+eyeop0XyhRrWsj/E1vUu6p1bdiS22xkAAAAAAAxsnocJLFbku3zqlBTfOfheD8t8FvjeHvv0de3V0+7fY5wAAAAAAAAAAAAAAAAAAAAAAAAAAAAAAAAAAAAAAAAAAAAAAAAAAAAAAAAAAAAAAAAAAAAAAAAAAAAAAAAAAAAAAAAAAAAAAAAAAAAAAAAAAAAAAAAAAAAAAAAAAAAAAAAAAAAAAAAAAAAAAAAAAAAAAAAAAAAAAAAAAAAAAAAAAAAAAAAAAAAAB//Z;opacity=40;" vertex="1" parent="1">
          <mxGeometry x="700" y="110.75" width="75.25" height="75.25" as="geometry" />
        </mxCell>
        <mxCell id="YF4UaICxPm4XRYPDHTDl-1" value="" style="shape=flexArrow;endArrow=classic;html=1;rounded=0;fillColor=#CCCCCC;strokeColor=none;" edge="1" parent="1">
          <mxGeometry width="50" height="50" relative="1" as="geometry">
            <mxPoint x="150" y="220" as="sourcePoint" />
            <mxPoint x="150" y="160" as="targetPoint" />
          </mxGeometry>
        </mxCell>
        <mxCell id="YF4UaICxPm4XRYPDHTDl-5" value="" style="shape=flexArrow;endArrow=classic;html=1;rounded=0;fillColor=#CCCCCC;strokeColor=none;" edge="1" parent="1">
          <mxGeometry width="50" height="50" relative="1" as="geometry">
            <mxPoint x="200" y="160" as="sourcePoint" />
            <mxPoint x="200" y="220" as="targetPoint" />
          </mxGeometry>
        </mxCell>
        <mxCell id="YF4UaICxPm4XRYPDHTDl-6" value="" style="shape=flexArrow;endArrow=classic;html=1;rounded=0;fillColor=#CCCCCC;strokeColor=none;" edge="1" parent="1">
          <mxGeometry width="50" height="50" relative="1" as="geometry">
            <mxPoint x="310" y="180" as="sourcePoint" />
            <mxPoint x="370" y="180" as="targetPoint" />
          </mxGeometry>
        </mxCell>
        <mxCell id="YF4UaICxPm4XRYPDHTDl-7" value="" style="shape=flexArrow;endArrow=classic;html=1;rounded=0;fillColor=#CCCCCC;strokeColor=none;" edge="1" parent="1">
          <mxGeometry width="50" height="50" relative="1" as="geometry">
            <mxPoint x="300" y="180" as="sourcePoint" />
            <mxPoint x="240" y="180" as="targetPoint" />
          </mxGeometry>
        </mxCell>
        <mxCell id="YF4UaICxPm4XRYPDHTDl-9" value="" style="ellipse;whiteSpace=wrap;html=1;aspect=fixed;strokeColor=#CCCCCC;strokeWidth=9;fillColor=none;" vertex="1" parent="1">
          <mxGeometry x="380" y="150" width="60" height="60" as="geometry" />
        </mxCell>
        <mxCell id="YF4UaICxPm4XRYPDHTDl-11" value="" style="ellipse;whiteSpace=wrap;html=1;aspect=fixed;strokeColor=#CCCCCC;strokeWidth=9;fillColor=none;" vertex="1" parent="1">
          <mxGeometry x="460" y="150" width="60" height="60" as="geometry" />
        </mxCell>
        <mxCell id="YF4UaICxPm4XRYPDHTDl-14" value="" style="ellipse;whiteSpace=wrap;html=1;aspect=fixed;fillColor=#CCCCCC;strokeColor=none;" vertex="1" parent="1">
          <mxGeometry x="403.75" y="174.75" width="11.25" height="11.25" as="geometry" />
        </mxCell>
        <mxCell id="YF4UaICxPm4XRYPDHTDl-20" value="" style="shape=mxgraph.sysml.x;strokeColor=#CCCCCC;strokeWidth=8;" vertex="1" parent="1">
          <mxGeometry x="480" y="170" width="20" height="20" as="geometry" />
        </mxCell>
        <mxCell id="YF4UaICxPm4XRYPDHTDl-22" value="" style="verticalLabelPosition=bottom;html=1;verticalAlign=top;strokeWidth=8;shape=mxgraph.lean_mapping.physical_pull;pointerEvents=1;rotation=-180;strokeColor=#CCCCCC;" vertex="1" parent="1">
          <mxGeometry x="620" y="150" width="60" height="60" as="geometry" />
        </mxCell>
        <mxCell id="YF4UaICxPm4XRYPDHTDl-26" value="" style="verticalLabelPosition=bottom;html=1;verticalAlign=top;strokeWidth=8;shape=mxgraph.lean_mapping.physical_pull;pointerEvents=1;rotation=-180;strokeColor=#CCCCCC;direction=east;flipH=1;" vertex="1" parent="1">
          <mxGeometry x="540" y="150.38" width="60" height="60" as="geometry" />
        </mxCell>
        <mxCell id="YF4UaICxPm4XRYPDHTDl-27" value="" style="endArrow=none;html=1;rounded=0;strokeWidth=8;strokeColor=#CCCCCC;" edge="1" parent="1">
          <mxGeometry width="50" height="50" relative="1" as="geometry">
            <mxPoint x="740" y="200" as="sourcePoint" />
            <mxPoint x="700" y="150" as="targetPoint" />
          </mxGeometry>
        </mxCell>
        <mxCell id="YF4UaICxPm4XRYPDHTDl-30" value="" style="endArrow=none;html=1;rounded=0;strokeWidth=8;strokeColor=#CCCCCC;" edge="1" parent="1">
          <mxGeometry width="50" height="50" relative="1" as="geometry">
            <mxPoint x="741" y="193" as="sourcePoint" />
            <mxPoint x="751" y="183" as="targetPoint" />
          </mxGeometry>
        </mxCell>
        <mxCell id="YF4UaICxPm4XRYPDHTDl-31" value="" style="endArrow=none;html=1;rounded=0;strokeWidth=8;strokeColor=#CCCCCC;" edge="1" parent="1">
          <mxGeometry width="50" height="50" relative="1" as="geometry">
            <mxPoint x="752" y="182" as="sourcePoint" />
            <mxPoint x="762" y="172" as="targetPoint" />
          </mxGeometry>
        </mxCell>
        <mxCell id="YF4UaICxPm4XRYPDHTDl-32" value="" style="endArrow=none;html=1;rounded=0;strokeWidth=8;strokeColor=#CCCCCC;" edge="1" parent="1">
          <mxGeometry width="50" height="50" relative="1" as="geometry">
            <mxPoint x="763" y="171" as="sourcePoint" />
            <mxPoint x="773" y="161" as="targetPoint" />
          </mxGeometry>
        </mxCell>
        <mxCell id="YF4UaICxPm4XRYPDHTDl-33" value="" style="endArrow=none;html=1;rounded=0;strokeWidth=8;strokeColor=#CCCCCC;" edge="1" parent="1">
          <mxGeometry width="50" height="50" relative="1" as="geometry">
            <mxPoint x="774" y="160" as="sourcePoint" />
            <mxPoint x="784" y="150" as="targetPoint" />
          </mxGeometry>
        </mxCell>
        <mxCell id="YF4UaICxPm4XRYPDHTDl-50" value="" style="endArrow=none;html=1;rounded=0;strokeWidth=8;strokeColor=#CCCCCC;" edge="1" parent="1">
          <mxGeometry width="50" height="50" relative="1" as="geometry">
            <mxPoint x="740" y="200" as="sourcePoint" />
            <mxPoint x="700" y="150" as="targetPoint" />
          </mxGeometry>
        </mxCell>
        <mxCell id="YF4UaICxPm4XRYPDHTDl-51" value="Up" style="text;strokeColor=none;align=center;fillColor=none;html=1;verticalAlign=middle;whiteSpace=wrap;rounded=0;fontStyle=1" vertex="1" parent="1">
          <mxGeometry x="120" y="220" width="60" height="30" as="geometry" />
        </mxCell>
        <mxCell id="YF4UaICxPm4XRYPDHTDl-52" value="Down" style="text;strokeColor=none;align=center;fillColor=none;html=1;verticalAlign=middle;whiteSpace=wrap;rounded=0;fontStyle=1" vertex="1" parent="1">
          <mxGeometry x="170" y="220" width="60" height="30" as="geometry" />
        </mxCell>
        <mxCell id="YF4UaICxPm4XRYPDHTDl-53" value="Left" style="text;strokeColor=none;align=center;fillColor=none;html=1;verticalAlign=middle;whiteSpace=wrap;rounded=0;fontStyle=1" vertex="1" parent="1">
          <mxGeometry x="240" y="220" width="60" height="30" as="geometry" />
        </mxCell>
        <mxCell id="YF4UaICxPm4XRYPDHTDl-54" value="Right" style="text;strokeColor=none;align=center;fillColor=none;html=1;verticalAlign=middle;whiteSpace=wrap;rounded=0;fontStyle=1" vertex="1" parent="1">
          <mxGeometry x="300" y="220" width="60" height="30" as="geometry" />
        </mxCell>
        <mxCell id="YF4UaICxPm4XRYPDHTDl-55" value="Forward" style="text;strokeColor=none;align=center;fillColor=none;html=1;verticalAlign=middle;whiteSpace=wrap;rounded=0;fontStyle=1" vertex="1" parent="1">
          <mxGeometry x="379.38" y="220" width="60" height="30" as="geometry" />
        </mxCell>
        <mxCell id="YF4UaICxPm4XRYPDHTDl-56" value="Backward" style="text;strokeColor=none;align=center;fillColor=none;html=1;verticalAlign=middle;whiteSpace=wrap;rounded=0;fontStyle=1" vertex="1" parent="1">
          <mxGeometry x="460" y="220" width="60" height="30" as="geometry" />
        </mxCell>
        <mxCell id="YF4UaICxPm4XRYPDHTDl-57" value="Clockwise" style="text;strokeColor=none;align=center;fillColor=none;html=1;verticalAlign=middle;whiteSpace=wrap;rounded=0;fontStyle=1" vertex="1" parent="1">
          <mxGeometry x="540" y="220" width="60" height="30" as="geometry" />
        </mxCell>
        <mxCell id="YF4UaICxPm4XRYPDHTDl-58" value="Anti Clockwise" style="text;strokeColor=none;align=center;fillColor=none;html=1;verticalAlign=middle;whiteSpace=wrap;rounded=0;fontStyle=1" vertex="1" parent="1">
          <mxGeometry x="609" y="220" width="90" height="30" as="geometry" />
        </mxCell>
        <mxCell id="YF4UaICxPm4XRYPDHTDl-59" value="Waving" style="text;strokeColor=none;align=center;fillColor=none;html=1;verticalAlign=middle;whiteSpace=wrap;rounded=0;fontStyle=1" vertex="1" parent="1">
          <mxGeometry x="715.25" y="220" width="60" height="30" as="geometry" />
        </mxCell>
      </root>
    </mxGraphModel>
  </diagram>
</mxfile>
